<svg xmlns="http://www.w3.org/2000/svg" width="1000" height="1000" viewBox="129978.04 -34024.29 1281.08 1101.99"><path id="pref" d="M130036.27,-33457.59 L130040.21,-33461.25 L130044.63,-33485.74 L130055.29,-33495.23 L130085.97,-33506.53 L130103.85,-33511.90 L130115.26,-33508.95 L130125.99,-33516.18 L130129.89,-33518.99 L130142.75,-33520.49 L130156.42,-33525.38 L130167.98,-33534.08 L130174.16,-33546.86 L130161.88,-33546.62 L130129.89,-33540.03 L130120.37,-33543.16 L130117.93,-33556.83 L130109.14,-33559.88 L130096.93,-33561.71 L130092.05,-33566.47 L130093.03,-33573.43 L130098.48,-33581.69 L130109.14,-33589.75 L130119.40,-33591.25 L130129.16,-33591.25 L130139.42,-33594.67 L130156.66,-33606.51 L130153.84,-33618.94 L130159.55,-33629.60 L130170.75,-33628.85 L130181.90,-33629.06 L130190.68,-33630.32 L130197.76,-33633.61 L130204.76,-33639.72 L130208.01,-33665.08 L130220.55,-33659.74 L130231.70,-33653.31 L130236.50,-33644.23 L130227.16,-33634.84 L130231.38,-33618.85 L130245.37,-33611.76 L130251.48,-33607.98 L130271.92,-33611.67 L130275.45,-33603.37 L130265.43,-33588.58 L130273.24,-33582.64 L130285.41,-33576.97 L130290.29,-33574.21 L130295.30,-33579.04 L130301.52,-33579.66 L130305.43,-33584.95 L130315.31,-33597.36 L130330.27,-33597.92 L130358.05,-33597.26 L130373.04,-33603.14 L130390.87,-33604.87 L130399.48,-33616.11 L130402.41,-33630.92 L130407.50,-33650.47 L130403.26,-33658.19 L130398.69,-33669.13 L130379.24,-33659.25 L130361.58,-33646.23 L130348.97,-33641.13 L130336.17,-33647.68 L130324.79,-33653.04 L130318.39,-33658.38 L130306.98,-33655.44 L130294.90,-33664.35 L130289.26,-33681.54 L130294.28,-33689.24 L130304.97,-33687.44 L130310.61,-33672.62 L130324.12,-33664.89 L130345.50,-33662.47 L130386.48,-33677.23 L130402.03,-33689.40 L130415.29,-33702.83 L130428.72,-33713.69 L130444.59,-33718.21 L130452.11,-33727.97 L130467.67,-33743.56 L130469.99,-33762.87 L130466.76,-33780.35 L130455.70,-33782.23 L130448.01,-33789.94 L130449.56,-33802.23 L130454.36,-33807.68 L130462.09,-33811.18 L130472.18,-33817.53 L130477.79,-33825.14 L130488.94,-33855.37 L130497.08,-33848.13 L130507.58,-33849.07 L130530.53,-33861.56 L130539.07,-33869.45 L130542.33,-33875.96 L130548.19,-33880.76 L130564.71,-33883.29 L130612.07,-33879.79 L130633.07,-33882.47 L130654.06,-33896.31 L130684.42,-33934.23 L130692.39,-33937.32 L130705.25,-33938.71 L130717.05,-33937.89 L130731.51,-33931.85 L130756.05,-33943.68 L130790.49,-33944.41 L130828.23,-33939.58 L130821.34,-33920.29 L130835.87,-33925.73 L130861.42,-33925.57 L130871.20,-33913.52 L130880.85,-33895.94 L130896.98,-33889.31 L130913.59,-33891.18 L130926.04,-33899.08 L130941.42,-33916.82 L130949.47,-33938.19 L130976.57,-33957.37 L131007.15,-33966.06 L131018.69,-33956.26 L131015.31,-33935.13 L131006.36,-33922.92 L131003.59,-33916.82 L131004.16,-33911.08 L130992.93,-33897.67 L131001.77,-33887.23 L130999.83,-33873.86 L130984.61,-33873.96 L130988.08,-33864.28 L130990.68,-33856.83 L130984.33,-33848.70 L130979.75,-33842.72 L130963.57,-33833.24 L130961.93,-33820.05 L130961.68,-33816.23 L130965.99,-33813.06 L130985.51,-33808.67 L131006.95,-33813.09 L131003.59,-33779.69 L131006.03,-33772.28 L131009.78,-33746.16 L131019.79,-33726.55 L131050.79,-33681.87 L131064.46,-33653.27 L131081.31,-33634.95 L131102.98,-33624.25 L131119.97,-33626.34 L131145.88,-33621.63 L131188.70,-33616.03 L131200.89,-33612.71 L131195.12,-33607.30 L131182.21,-33597.10 L131179.52,-33592.73 L131175.18,-33583.33 L131175.18,-33568.44 L131183.13,-33545.45 L131181.12,-33535.94 L131175.07,-33525.50 L131162.98,-33513.04 L131157.09,-33503.61 L131149.49,-33495.66 L131139.73,-33491.55 L131124.48,-33490.15 L131064.28,-33498.11 L131004.23,-33500.13 L130995.08,-33498.94 L130980.67,-33495.78 L130950.54,-33485.19 L130937.98,-33477.34 L130925.58,-33466.12 L130910.80,-33448.76 L130885.84,-33425.40 L130874.83,-33407.83 L130864.91,-33384.68 L130841.30,-33352.02 L130838.51,-33345.51 L130837.11,-33339.75 L130836.33,-33331.45 L130836.95,-33322.51 L130843.00,-33294.40 L130841.14,-33277.22 L130826.26,-33232.99 L130830.75,-33214.72 L130852.15,-33159.73 L130856.02,-33142.99 L130834.73,-33080.93 L130786.83,-33100.51 L130728.64,-33134.46 L130715.93,-33139.14 L130700.89,-33140.59 L130685.18,-33140.04 L130673.09,-33135.32 L130649.83,-33113.12 L130635.88,-33104.28 L130617.79,-33101.13 L130579.87,-33098.37 L130563.69,-33091.68 L130546.48,-33077.46 L130521.78,-33061.60 L130508.24,-33049.46 L130498.99,-33033.98 L130500.49,-33016.20 L130501.94,-33009.85 L130499.46,-33002.48 L130498.22,-33000.23 L130483.95,-32994.68 L130445.14,-32989.51 L130429.38,-32980.65 L130429.16,-32980.52 L130426.44,-33007.15 L130428.48,-33050.52 L130421.64,-33069.77 L130422.21,-33082.59 L130420.67,-33087.59 L130415.05,-33091.62 L130409.68,-33092.68 L130404.47,-33093.00 L130400.16,-33095.04 L130379.40,-33107.86 L130372.24,-33114.89 L130367.52,-33126.37 L130368.01,-33134.95 L130364.76,-33140.33 L130349.36,-33142.05 L130349.34,-33142.16 L130346.29,-33156.87 L130345.36,-33167.12 L130346.75,-33179.91 L130353.73,-33188.78 L130362.31,-33195.21 L130366.65,-33199.78 L130370.21,-33207.46 L130374.71,-33227.25 L130381.22,-33236.45 L130390.83,-33243.24 L130404.17,-33248.15 L130414.09,-33254.48 L130423.60,-33259.11 L130444.21,-33259.73 L130453.36,-33264.71 L130465.04,-33281.33 L130470.93,-33287.30 L130477.91,-33304.27 L130483.95,-33314.81 L130495.84,-33322.00 L130507.67,-33326.52 L130517.44,-33327.68 L130526.12,-33330.86 L130531.91,-33337.89 L130536.66,-33369.69 L130536.40,-33376.98 L130528.91,-33409.33 L130526.64,-33414.24 L130519.30,-33420.85 L130506.69,-33423.54 L130486.90,-33419.61 L130458.63,-33408.53 L130446.64,-33401.79 L130426.23,-33386.96 L130414.29,-33386.54 L130401.06,-33394.06 L130379.67,-33413.16 L130365.87,-33420.85 L130350.83,-33427.00 L130289.96,-33458.84 L130275.23,-33464.47 L130258.95,-33467.98 L130230.84,-33469.48 L130212.03,-33468.71 L130163.51,-33461.73 L130121.13,-33462.20 L130090.75,-33458.78 L130036.44,-33457.60 L130036.27,-33457.59Z" fill="#000000" fill-rule="evenodd"/></svg>