<?xml version="1.0" encoding="UTF-8"?>
<svg xmlns="http://www.w3.org/2000/svg" version="1.1" width="258" height="389" viewBox="0 0 258 389">
<defs><clipPath id="region"><path d="M136036.48,-34715.35 L136049.66,-34711.68 L136055.09,-34708.45 L136059.12,-34702.53 L136062.53,-34691.79 L136064.85,-34677.32 L136072.35,-34656.31 L136063.30,-34646.80 L136039.89,-34641.24 L136038.19,-34637.16 L136040.98,-34633.75 L136053.38,-34626.44 L136058.34,-34619.13 L136059.27,-34605.54 L136053.54,-34589.00 L136052.45,-34574.58 L136059.89,-34562.85 L136075.86,-34552.49 L136096.99,-34542.49 L136114.20,-34536.39 L136128.98,-34534.95 L136142.47,-34535.57 L136153.63,-34533.84 L136161.64,-34527.81 L136171.46,-34509.37 L136181.28,-34503.97 L136202.52,-34501.51 L136207.95,-34495.41 L136211.20,-34486.40 L136210.42,-34472.47 L136202.67,-34458.83 L136177.51,-34438.62 L136157.30,-34431.15 L136113.89,-34425.19 L136095.60,-34420.02 L136080.72,-34408.80 L136071.21,-34393.82 L136069.24,-34377.00 L136073.90,-34363.54 L136081.96,-34350.88 L136107.69,-34300.70 L136106.45,-34292.04 L136100.87,-34283.44 L136104.39,-34268.99 L136112.81,-34254.96 L136118.70,-34241.14 L136118.08,-34228.40 L136107.23,-34189.39 L136110.17,-34138.59 L136109.40,-34126.24 L136085.78,-34049.96 L136090.79,-34035.91 L136101.49,-34018.47 L136097.77,-34011.65 L136087.23,-34009.45 L136035.40,-34010.74 L136017.57,-34004.85 L136003.82,-33993.12 L135990.70,-33970.33 L135984.81,-33953.15 L135974.11,-33936.97 L135957.52,-33917.96 L135925.53,-33901.08 L135920.73,-33893.43 L135915.15,-33888.73 L135900.37,-33888.53 L135891.38,-33882.69 L135883.31,-33862.95 L135875.41,-33850.80 L135847.66,-33838.14 L135817.27,-33872.22 L135800.73,-33876.54 L135785.23,-33879.04 L135770.50,-33875.40 L135758.26,-33871.14 L135747.09,-33869.15 L135736.04,-33869.59 L135696.35,-33878.91 L135682.19,-33879.90 L135668.24,-33877.62 L135653.97,-33872.56 L135637.39,-33859.07 L135628.24,-33855.97 L135618.57,-33857.13 L135608.96,-33863.82 L135602.92,-33875.09 L135598.27,-33890.13 L135603.54,-33916.54 L135610.67,-33937.26 L135613.30,-33954.85 L135606.48,-33977.20 L135584.73,-33998.42 L135579.51,-34015.65 L135571.29,-34028.52 L135565.40,-34035.62 L135554.03,-34041.69 L135546.43,-34050.74 L135543.02,-34064.56 L135551.09,-34082.47 L135575.01,-34111.51 L135587.10,-34129.11 L135615.16,-34156.96 L135632.89,-34184.58 L135640.02,-34193.47 L135649.94,-34200.52 L135661.10,-34204.45 L135701.10,-34205.92 L135708.44,-34212.90 L135709.06,-34225.35 L135694.49,-34248.61 L135668.86,-34272.64 L135662.81,-34284.94 L135659.09,-34323.23 L135646.84,-34371.75 L135659.55,-34374.96 L135665.45,-34381.11 L135670.72,-34388.55 L135668.86,-34407.87 L135675.21,-34433.35 L135676.92,-34447.97 L135674.02,-34464.15 L135665.14,-34493.06 L135650.56,-34516.60 L135641.11,-34527.01 L135627.10,-34537.94 L135622.97,-34543.81 L135622.04,-34553.42 L135646.53,-34601.07 L135667.62,-34674.89 L135674.02,-34690.05 L135684.57,-34705.69 L135706.27,-34759.53 L135721.93,-34749.20 L135739.34,-34733.77 L135752.68,-34726.25 L135768.49,-34719.92 L135809.00,-34709.05 L135817.68,-34704.19 L135832.26,-34699.12 L135849.21,-34698.66 L135872.77,-34706.98 L135890.03,-34717.47 L135909.88,-34724.19 L135932.04,-34723.93 L135965.38,-34714.00 L135985.43,-34703.28 L135999.38,-34697.57 L136008.83,-34695.92 L136019.74,-34698.19 L136029.20,-34703.62 L136036.48,-34715.35Z" clip-rule="evenodd" transform="matrix(0.342478,0,0,0.403440,-46404.1027,14034.1921)"/></clipPath></defs>

<g clip-path="url(#region)"><rect id="field" width="258" height="389" fill="#000000"/></g>
</svg>
